P2
25
35
255
55 55 55 55 55 55 55 55 55 55 55 55 255 55 55 55 55 55 255 55 255 55 55 55 55 
55 55 55 55 55 55 55 55 55 55 55 255 255 55 255 55 55 55 55 255 55 55 55 55 55 
55 55 55 55 55 55 55 55 55 55 255 55 55 255 55 55 55 55 255 55 255 55 55 55 55 
55 55 55 55 55 55 55 55 55 255 55 255 55 255 55 55 55 255 55 55 255 55 55 55 55 
55 55 55 55 55 55 55 55 255 55 255 55 55 55 255 55 255 55 55 55 255 55 55 55 55 
55 55 55 55 55 55 55 255 55 55 55 255 55 55 55 255 55 55 55 55 55 255 55 55 55 
55 55 55 55 55 255 55 255 55 55 255 55 55 55 55 55 255 55 255 55 255 55 55 55 55 
55 55 55 55 255 55 255 55 255 55 255 55 55 55 55 55 55 255 55 55 55 255 55 55 55 
255 255 55 255 55 255 55 255 55 255 55 55 255 55 55 55 55 55 255 55 255 55 55 55 55 
55 255 255 55 255 55 55 55 255 55 55 255 255 255 55 55 55 55 55 255 55 55 55 55 55 
255 255 55 255 55 55 55 55 55 255 255 55 55 55 255 55 55 55 255 55 55 55 55 55 55 
55 55 55 55 255 55 55 55 55 55 55 55 55 255 55 255 55 255 55 255 55 55 55 55 55 
55 55 55 55 255 55 55 55 55 55 55 55 55 55 55 55 255 55 255 55 55 55 55 55 55 
55 55 55 55 255 55 55 55 55 55 55 55 55 55 55 255 55 55 55 255 255 55 55 55 55 
55 55 55 255 55 255 55 55 55 255 55 55 55 55 255 55 55 55 255 55 55 255 55 55 55 
55 55 255 55 55 55 255 55 255 55 55 55 55 255 55 255 55 55 55 255 55 55 255 55 55 
55 255 55 55 0 55 55 255 55 55 55 55 255 55 55 55 255 55 55 255 255 55 55 255 55 
0 0 55 0 55 0 55 0 55 55 55 255 55 255 55 55 55 255 55 255 55 255 55 0 0 
55 55 0 55 55 55 0 55 0 55 255 55 255 55 255 255 55 55 255 255 255 0 0 55 55 
55 55 55 55 55 55 55 55 55 0 55 55 55 55 255 55 255 255 55 55 0 55 55 55 55 
55 55 55 55 55 55 55 55 55 55 0 55 0 55 55 0 0 55 0 0 55 55 55 55 55 
55 55 55 55 55 55 55 55 55 55 55 0 55 0 0 55 55 0 55 255 55 55 55 55 55 
55 55 55 55 55 55 55 55 55 55 255 55 55 255 55 55 55 55 55 55 255 55 55 55 55 
55 55 55 55 55 55 55 55 55 55 255 55 255 55 55 55 55 55 55 255 55 55 55 55 55 
55 55 55 55 55 55 55 55 255 55 55 255 55 55 55 55 55 55 55 255 55 55 55 55 55 
55 55 55 55 55 55 55 55 55 255 255 55 55 55 255 55 255 55 255 55 55 55 55 55 55 
55 55 55 55 55 55 55 255 55 255 55 55 55 55 255 55 55 255 55 55 55 55 55 55 55 
55 55 55 55 55 55 55 55 255 55 55 55 255 55 255 55 255 55 55 55 55 55 55 55 55 
255 255 255 55 55 55 55 55 255 55 55 55 55 255 55 255 55 55 55 55 255 255 255 255 255 
255 55 55 255 55 55 55 55 55 255 55 255 55 55 255 55 55 55 55 55 55 55 255 55 55 
255 55 55 255 55 55 55 55 55 55 255 55 55 55 255 55 55 55 55 55 55 55 255 55 55 
255 255 255 55 55 55 55 55 55 55 255 55 55 55 255 55 55 55 55 55 55 55 255 55 55 
255 55 255 55 55 55 55 55 55 55 55 255 55 255 55 55 55 55 55 55 55 55 255 55 55 
255 55 55 255 55 55 55 55 55 55 55 55 255 55 55 55 55 55 55 55 55 55 255 55 55 
255 55 55 255 55 55 55 55 55 55 55 55 255 55 55 55 55 55 55 55 55 55 255 55 55 
